<svg xmlns="http://www.w3.org/2000/svg" width="250" viewBox="0 0 156.183 35.831"><defs><style>.svg-el-a{fill:#16b3ee}.svg-el-b,.svg-el-c{fill:#6a6a6b}.svg-el-c{font-size:9px;font-family:revert;font-weight:300}</style></defs><path class="svg-el-a" d="M77.001.001a10.975 10.975 0 00-5.181 20.651 5.385 5.385 0 013.559-3.785 6.1 6.1 0 011.619-11.983A4.893 4.893 0 0081.883.003H77z"></path><path class="svg-el-b" d="M82.692 2.033a5.387 5.387 0 01-3.559 3.784 6.1 6.1 0 01-1.62 11.983 4.894 4.894 0 00-4.885 4.881h4.883a10.858 10.858 0 005.452-1.459 10.967 10.967 0 00-.271-19.191z"></path><path class="svg-el-a" d="M10.98.357A11.018 11.018 0 000 11.337v10.981a4.874 4.874 0 004.877-4.877v-6.1a6.067 6.067 0 016.085-6.094h2.166A4.874 4.874 0 0018.005.361zM43.432 0a4.886 4.886 0 00-1.876 6.5 1.564 1.564 0 00.092.174l8.537 14.787a.641.641 0 01.064.11l.082.11c.018.027.027.046.046.073a1.59 1.59 0 01.11.129.854.854 0 00.091.082.88.88 0 00.092.1 1.208 1.208 0 01.119.1l.082.056a.805.805 0 00.11.073.4.4 0 00.1.064c.064.037.137.073.211.11.027.009.055.027.082.037.046.018.082.027.128.045a.168.168 0 00.064.018l.165.055c.027 0 .055.009.082.009l.147.027a.328.328 0 00.092.009.671.671 0 00.137.009.468.468 0 00.11.009.549.549 0 00.119-.009.586.586 0 00.128-.009.435.435 0 00.1-.009l.137-.027a.281.281 0 00.082-.018 1.079 1.079 0 00.165-.046c.027-.009.045-.009.073-.018a.6.6 0 01.11-.037.321.321 0 01.1-.046c.046-.027.1-.055.155-.082l.056-.027a.57.57 0 01.1-.064.75.75 0 01.11-.074c.027-.018.046-.037.073-.055.046-.037.083-.073.128-.11l.092-.092a.814.814 0 00.082-.092c.036-.036.073-.082.11-.118.018-.027.037-.046.055-.074a.745.745 0 00.073-.11c.027-.037.046-.073.064-.1v-.007l8.546-14.786a2.442 2.442 0 10-4.225-2.448l-6.437 11.134-6.423-11.136-2.443-4.227z"></path><path class="svg-el-b" d="M130.521 0a4.887 4.887 0 011.876 6.5l-.092.174-8.537 14.788-.008.009c-.019.027-.037.064-.055.092a1.62 1.62 0 01-.083.119.5.5 0 00-.056.073 3.746 3.746 0 01-.1.128c-.028.028-.055.056-.083.082s-.064.064-.1.092a1.661 1.661 0 01-.128.11.576.576 0 01-.073.056c-.037.027-.074.046-.11.073a1.06 1.06 0 01-.1.064c-.009.009-.018.009-.036.018a1.128 1.128 0 01-.174.092c-.028.009-.055.027-.091.036a.628.628 0 01-.12.046c-.019.009-.037.009-.064.018a1.077 1.077 0 01-.165.046.261.261 0 01-.083.019l-.147.027a.329.329 0 01-.091.009.723.723 0 01-.136.009.436.436 0 01-.11.009.475.475 0 01-.12-.009.646.646 0 01-.128-.009.364.364 0 01-.1-.009c-.046-.009-.092-.018-.147-.027a.2.2 0 01-.073-.019 1.013 1.013 0 01-.165-.046c-.028-.009-.054-.009-.073-.018l-.083-.027c0-.009-.009-.009-.018-.009-.037-.019-.073-.027-.11-.046-.055-.027-.118-.064-.173-.092-.009-.009-.018-.009-.036-.018-.037-.018-.065-.046-.1-.064s-.073-.046-.11-.074-.046-.037-.074-.055c-.045-.037-.082-.073-.128-.11l-.082-.082-.1-.1c-.037-.036-.064-.082-.1-.118a.489.489 0 00-.055-.074 1.377 1.377 0 01-.083-.118c-.018-.027-.036-.064-.055-.092v-.011l-8.546-14.786a2.442 2.442 0 114.228-2.443l6.433 11.135 6.423-11.135 2.443-4.228z"></path><path class="svg-el-a" d="M28.937.366a10.892 10.892 0 00-5.454 1.464 10.983 10.983 0 0010.981 19.023l4.227-2.443a4.892 4.892 0 00-6.671-1.784 6.1 6.1 0 11.586-10.2l-5 2.882a2.447 2.447 0 002.444 4.228l7.677-4.429a2.345 2.345 0 00.842-3.083 2.781 2.781 0 00-.092-.174A11.014 11.014 0 0028.934.369z"></path><path class="svg-el-b" d="M146.288.366a10.978 10.978 0 105.527 20.488l4.227-2.443a4.884 4.884 0 00-6.662-1.784 6.1 6.1 0 11.578-10.2l-5 2.882a2.447 2.447 0 002.443 4.228l7.677-4.429a2.344 2.344 0 00.842-3.083h.009c-.037-.055-.064-.11-.1-.174A11.017 11.017 0 00146.284.37zM102.99 22.318a11.013 11.013 0 01-10.98-10.981V.357a4.89 4.89 0 014.877 4.886v6.094a6.063 6.063 0 006.085 6.1h4.978a4.873 4.873 0 014.886 4.877z"></path><text class="svg-el-c" transform="translate(11.518 33.831)"><tspan x="0" y="0">H</tspan></text><text class="svg-el-c" transform="translate(26.705 33.831)"><tspan x="0" y="0">E</tspan></text><text class="svg-el-c" transform="translate(40 33.831)"><tspan x="0" y="0">A</tspan></text><text class="svg-el-c" transform="translate(54.674 33.831)"><tspan x="0" y="0">L</tspan></text><text class="svg-el-c" transform="translate(66.62 33.831)"><tspan x="0" y="0">T</tspan></text><text class="svg-el-c" transform="translate(80.035 33.831)"><tspan x="0" y="0">H</tspan></text><text class="svg-el-c" transform="translate(95.222 33.831)"><tspan x="0" y="0">C</tspan></text><text class="svg-el-c" transform="translate(109.813 33.831)"><tspan x="0" y="0">A</tspan></text><text class="svg-el-c" transform="translate(124.488 33.831)"><tspan x="0" y="0">R</tspan></text><text class="svg-el-c" transform="translate(138.373 33.831)"><tspan x="0" y="0">E</tspan></text></svg>