
<svg xmlns="http://www.w3.org/2000/svg" xmlns:xlink="http://www.w3.org/1999/xlink" id="body_1" viewBox="0 0 70 91" width="70" height="91">

<g transform="matrix(0.021046301 0 0 0.021046301 -0 0.17678687)">
	<g transform="matrix(1 0 0 1 0 6204.3306)">
		<g transform="matrix(0.8553146 0 0 1 555.25244 0)">
            <path d="M928.864 -4294.5234C 1161.5797 -4294.5234 1327.9425 -4337.797 1427.9526 -4424.344C 1529.8859 -4510.8916 1580.8525 -4653.2134 1580.8525 -4851.31C 1580.8525 -5047.484 1529.8859 -5187.8823 1427.9526 -5272.5063C 1327.9425 -5357.1304 1161.5797 -5399.4424 928.864 -5399.4424L928.864 -5399.4424L461.5093 -5399.4424L461.5093 -4294.524L928.864 -4294.5234zM461.5093 -3527.1387L461.5093 -1897.1671L-649.1792 -1897.1671L-649.1792 -4293.9976L461.11646 -4291.927C -43.925842 -4294.1113 -554.952 -4839.0806 -637.605 -5909.108C -644.8916 -6003.439 -648.8489 -6101.8506 -649.17926 -6204.331L-649.17926 -6204.331L-339.57486 -6204.331L1047.145 -6204.331C 1614.5098 -6204.331 2029.936 -6109.1294 2293.424 -5918.7256C 2558.8354 -5728.322 2691.541 -5427.33 2691.541 -5015.7505C 2691.541 -4731.1064 2622.3032 -4497.429 2483.828 -4314.7188C 2347.276 -4132.008 2140.5244 -3997.3792 1863.5734 -3910.832C 2015.5117 -3876.2131 2151.102 -3797.3591 2270.345 -3674.2698C 2391.511 -3553.1038 2513.6387 -3368.47 2636.7278 -3120.368L2636.7278 -3120.368L3239.6729 -1897.1681L2056.8618 -1897.1681L1531.8091 -2967.468C 1426.0292 -3182.8743 1318.3259 -3330.0044 1208.6996 -3408.8584C 1100.9965 -3487.7124 956.75116 -3527.1394 775.96375 -3527.1394z" stroke="none" fill="#357BA8" fill-rule="nonzero" />
		</g>
	</g>
</g>
</svg>