<svg xmlns="http://www.w3.org/2000/svg" width="80" height="80" viewBox="0 0 80 80"><defs><style>.a{fill:none;}.b{fill:#6c6e70;}</style></defs><path class="a" d="M0,0H80V80H0Z"/><path class="b" d="M40,2A38,38,0,1,0,78,40,38.014,38.014,0,0,0,40,2ZM21.266,63.864C22.9,60.444,32.856,57.1,40,57.1s17.138,3.344,18.734,6.764a30.116,30.116,0,0,1-37.468,0Zm42.9-5.51C58.734,51.742,45.548,49.5,40,49.5s-18.734,2.242-24.168,8.854a30.4,30.4,0,1,1,48.336,0ZM40,17.2A13.3,13.3,0,1,0,53.3,30.5,13.266,13.266,0,0,0,40,17.2Zm0,19a5.7,5.7,0,1,1,5.7-5.7A5.692,5.692,0,0,1,40,36.2Z"/></svg>