<?xml version="1.0" encoding="UTF-8" standalone="no" ?>
<!DOCTYPE svg PUBLIC "-//W3C//DTD SVG 1.1//EN" "http://www.w3.org/Graphics/SVG/1.1/DTD/svg11.dtd">
<svg xmlns="http://www.w3.org/2000/svg" xmlns:xlink="http://www.w3.org/1999/xlink" version="1.1" width="1080" height="1080" viewBox="0 0 1080 1080" xml:space="preserve">
<desc>Created with Fabric.js 4.2.0</desc>
<defs>
</defs>
<g transform="matrix(1 0 0 1 540 540)" id="19ac03e7-8ed3-46f7-94b7-f0c3d4975232"  >
<rect style="stroke: none; stroke-width: 1; stroke-dasharray: none; stroke-linecap: butt; stroke-dashoffset: 0; stroke-linejoin: miter; stroke-miterlimit: 4; fill: rgb(255,255,255); fill-rule: nonzero; opacity: 1;" vector-effect="non-scaling-stroke"  x="-540" y="-540" rx="0" ry="0" width="1080" height="1080" />
</g>
<g transform="matrix(1 0 0 1 540 540)" id="313115d9-cf68-4c82-9485-50ace30cf7f2"  >
</g>
<g transform="matrix(15.06 0 0 15.06 540 540)"  >
<g style="" vector-effect="non-scaling-stroke"   >
		<g transform="matrix(1 0 0 1 0 0)"  >
<path style="stroke: none; stroke-width: 1; stroke-dasharray: none; stroke-linecap: butt; stroke-dashoffset: 0; stroke-linejoin: miter; stroke-miterlimit: 4; fill: rgb(255,0,0); fill-rule: nonzero; opacity: 1;" vector-effect="non-scaling-stroke"  transform=" translate(-25.89, -25.89)" d="M 25.892 0 C 18.246 0 12.046999999999999 6.198 12.046999999999999 13.845 C 12.046999999999999 15.339 12.290999999999999 16.774 12.726999999999999 18.119 C 13.707999999999998 21.58 25.019 51.787 25.019 51.787 C 25.019 51.787 37.033 24.084 38.849 18.691000000000003 C 39.413999999999994 17.180000000000003 39.739999999999995 15.551000000000002 39.739999999999995 13.843000000000004 C 39.738 6.199 33.539 0 25.892 0 z M 25.892 24.761 C 19.892 24.761 15.027 19.894 15.027 13.895999999999999 C 15.027 7.892999999999999 19.892 3.0279999999999987 25.892 3.0279999999999987 C 31.895 3.0279999999999987 36.757999999999996 7.892999999999999 36.757999999999996 13.895999999999999 C 36.758 19.894 31.895 24.761 25.892 24.761 z" stroke-linecap="round" />
</g>
		<g transform="matrix(1 0 0 1 0 -11.96)"  >
<path style="stroke: none; stroke-width: 1; stroke-dasharray: none; stroke-linecap: butt; stroke-dashoffset: 0; stroke-linejoin: miter; stroke-miterlimit: 4; fill: rgb(255,0,0); fill-rule: nonzero; opacity: 1;" vector-effect="non-scaling-stroke"  transform=" translate(-25.89, -13.93)" d="M 30.511 6.326 L 21.274 6.326 C 20.326 6.326 19.554000000000002 7.161 19.554000000000002 8.192 L 19.554000000000002 18.231 C 19.554000000000002 18.916 19.895000000000003 19.511000000000003 20.402 19.835 L 20.402 20.908 C 20.402 21.261000000000003 20.969 21.544 21.673000000000002 21.544 C 22.374000000000002 21.544 22.944000000000003 21.261 22.944000000000003 20.908 L 22.944000000000003 20.096 L 24.5 20.096 L 24.5 20.095 L 27.717 20.095 L 27.717 20.096 L 28.912 20.096 L 28.912 20.908 C 28.912 21.261000000000003 29.48 21.544 30.183 21.544 C 30.886 21.544 31.454 21.261 31.454 20.908 L 31.454 19.792 C 31.925 19.458000000000002 32.234 18.885 32.234 18.23 L 32.234 8.191 C 32.232 7.162 31.461 6.326 30.511 6.326 z M 23.22 7.121 L 28.564 7.121 L 28.564 7.64 L 23.22 7.64 L 23.22 7.121 z M 24.291 17.061 L 20.918 17.061 L 20.918 15.813 L 24.291 15.813 L 24.291 17.061 z M 27.715 19.941 L 24.498 19.941 L 24.498 18.951 L 27.715 18.951 L 27.715 19.941 z M 31.037 17.061 L 27.663 17.061 L 27.663 15.813 L 31.037 15.813 L 31.037 17.061 z M 31.185 12.773 C 31.185 12.9 30.961 13.003 30.685 13.003 L 21.1 13.003 C 20.825000000000003 13.003 20.601000000000003 12.899000000000001 20.601000000000003 12.773 L 20.601000000000003 8.339 C 20.601000000000003 8.211 20.825000000000003 8.107000000000001 21.1 8.107000000000001 L 30.685000000000002 8.107000000000001 C 30.961000000000002 8.107000000000001 31.185000000000002 8.211 31.185000000000002 8.339 L 31.185000000000002 12.773 z" stroke-linecap="round" />
</g>
</g>
</g>
</svg>