<svg xmlns="http://www.w3.org/2000/svg" fill="#757575" width="24" height="24"><path d="M10.417 7.697c0 .512-.099 1.001-.271 1.455-.553 1.618-4.208 9.932-4.208 9.932L2.198 8.98c-.131-.404-.206-.835-.206-1.283 0-2.294 1.886-4.155 4.212-4.155s4.213 1.86 4.213 4.155zm-.907.015c0-1.801-1.48-3.262-3.306-3.262S2.898 5.91 2.898 7.712s1.48 3.261 3.306 3.261S9.51 9.512 9.51 7.712z"/><path fill="#757575" d="M7.5 17.083h2v2h-2z"/><path d="M22.426 7.697c0 .512-.1 1.001-.271 1.455-.553 1.618-4.207 9.932-4.207 9.932L14.208 8.98C14.075 8.576 14 8.145 14 7.697c0-2.294 1.886-4.155 4.213-4.155s4.211 1.86 4.213 4.155zm-.908.015c0-1.801-1.479-3.262-3.305-3.262s-3.307 1.46-3.307 3.262 1.48 3.261 3.307 3.261 3.305-1.461 3.305-3.261z"/><path d="M11 17.083h2v2h-2zm3.459 0h2v2h-2z" fill="#757575"/></svg>